<svg xmlns="http://www.w3.org/2000/svg" viewBox="0 0 800 400">
  <defs>
    <linearGradient id="bg6" x1="0%" y1="0%" x2="100%" y2="100%">
      <stop offset="0%" style="stop-color:#0f0f23"/>
      <stop offset="50%" style="stop-color:#16213e"/>
      <stop offset="100%" style="stop-color:#1a1a2e"/>
    </linearGradient>
    <linearGradient id="gold6" x1="0%" y1="0%" x2="100%" y2="100%">
      <stop offset="0%" style="stop-color:#D4AF37"/>
      <stop offset="100%" style="stop-color:#F4D03F"/>
    </linearGradient>
    <linearGradient id="transit1" x1="0%" y1="0%" x2="100%" y2="0%">
      <stop offset="0%" style="stop-color:#E6B8D4;stop-opacity:0"/>
      <stop offset="50%" style="stop-color:#E6B8D4;stop-opacity:0.8"/>
      <stop offset="100%" style="stop-color:#E6B8D4;stop-opacity:0"/>
    </linearGradient>
    <linearGradient id="transit2" x1="0%" y1="0%" x2="100%" y2="0%">
      <stop offset="0%" style="stop-color:#87CEEB;stop-opacity:0"/>
      <stop offset="50%" style="stop-color:#87CEEB;stop-opacity:0.8"/>
      <stop offset="100%" style="stop-color:#87CEEB;stop-opacity:0"/>
    </linearGradient>
    <radialGradient id="transitGlow" cx="50%" cy="50%" r="50%">
      <stop offset="0%" style="stop-color:#D4AF37;stop-opacity:0.2"/>
      <stop offset="100%" style="stop-color:#D4AF37;stop-opacity:0"/>
    </radialGradient>
    <filter id="blur6">
      <feGaussianBlur stdDeviation="2"/>
    </filter>
  </defs>

  <!-- Background -->
  <rect width="800" height="400" fill="url(#bg6)"/>

  <!-- Stars -->
  <g fill="#fff" opacity="0.4">
    <circle cx="70" cy="60" r="1"/>
    <circle cx="180" cy="40" r="1.2"/>
    <circle cx="620" cy="50" r="1"/>
    <circle cx="730" cy="80" r="1.2"/>
    <circle cx="50" cy="340" r="1"/>
    <circle cx="750" cy="320" r="1"/>
  </g>

  <!-- Central glow -->
  <circle cx="400" cy="200" r="150" fill="url(#transitGlow)"/>

  <!-- Natal chart (fixed, inner) -->
  <circle cx="400" cy="200" r="80" fill="none" stroke="url(#gold6)" stroke-width="2" opacity="0.8"/>
  <circle cx="400" cy="200" r="60" fill="none" stroke="url(#gold6)" stroke-width="1" opacity="0.4"/>

  <!-- Natal planets (fixed positions) -->
  <g fill="#D4AF37" opacity="0.9">
    <circle cx="400" cy="120" r="6"/>
    <circle cx="460" cy="150" r="5"/>
    <circle cx="470" cy="210" r="5"/>
    <circle cx="430" cy="270" r="6"/>
    <circle cx="350" cy="250" r="5"/>
    <circle cx="330" cy="180" r="5"/>
  </g>

  <!-- Transit ring (outer, moving) -->
  <circle cx="400" cy="200" r="130" fill="none" stroke="#E6B8D4" stroke-width="1.5" opacity="0.5"/>
  <circle cx="400" cy="200" r="140" fill="none" stroke="#87CEEB" stroke-width="1" opacity="0.3" stroke-dasharray="8,4"/>

  <!-- Transiting planets (outer positions with motion trails) -->
  <g>
    <!-- Transit planet 1 with trail -->
    <path d="M520,150 Q540,180 530,200" fill="none" stroke="url(#transit1)" stroke-width="3"/>
    <circle cx="530" cy="200" r="8" fill="#E6B8D4" filter="url(#blur6)"/>
    <circle cx="530" cy="200" r="5" fill="#E6B8D4"/>

    <!-- Transit planet 2 with trail -->
    <path d="M280,130 Q260,160 270,200" fill="none" stroke="url(#transit2)" stroke-width="3"/>
    <circle cx="270" cy="200" r="7" fill="#87CEEB" filter="url(#blur6)"/>
    <circle cx="270" cy="200" r="4" fill="#87CEEB"/>

    <!-- Transit planet 3 with trail -->
    <path d="M450,320 Q420,340 380,330" fill="none" stroke="url(#transit1)" stroke-width="2"/>
    <circle cx="380" cy="330" r="6" fill="#E6B8D4" filter="url(#blur6)"/>
    <circle cx="380" cy="330" r="4" fill="#E6B8D4"/>
  </g>

  <!-- Aspect lines (transit to natal) -->
  <g stroke="#D4AF37" stroke-width="1" opacity="0.4" stroke-dasharray="4,4">
    <line x1="530" y1="200" x2="470" y2="210"/>
    <line x1="270" y1="200" x2="330" y2="180"/>
    <line x1="380" y1="330" x2="430" y2="270"/>
  </g>

  <!-- Aspect symbols at intersection -->
  <g fill="#D4AF37" opacity="0.7">
    <polygon points="500,205 495,210 500,215 505,210" />
    <polygon points="300,190 295,195 300,200 305,195" />
  </g>

  <!-- Time arrow (showing movement/timing) -->
  <g stroke="#D4AF37" stroke-width="1.5" opacity="0.5">
    <path d="M600,350 Q650,340 700,350" fill="none"/>
    <polygon points="700,345 710,350 700,355" fill="#D4AF37"/>
  </g>

  <!-- Calendar/time markers -->
  <g fill="#D4AF37" font-family="serif" font-size="10" opacity="0.4">
    <text x="600" y="365">PAST</text>
    <text x="680" y="365">FUTURE</text>
  </g>

  <!-- Central point -->
  <circle cx="400" cy="200" r="3" fill="url(#gold6)"/>

  <!-- Labels -->
  <g fill="#D4AF37" font-family="serif" font-size="10" opacity="0.5">
    <text x="400" y="90" text-anchor="middle">NATAL</text>
    <text x="560" y="200" text-anchor="start">TRANSIT</text>
  </g>
</svg>